<svg width="14" height="14" viewBox="0 0 14 14" fill="none" xmlns="http://www.w3.org/2000/svg">
<path d="M12.3025 4.07164C11.8067 3.5233 10.9783 3.24914 9.77666 3.24914H9.63666V3.2258C9.63666 2.2458 9.63666 1.03247 7.44333 1.03247H6.55666C4.36333 1.03247 4.36333 2.25164 4.36333 3.2258V3.25497H4.22333C3.01583 3.25497 2.19333 3.52914 1.6975 4.07747C1.12 4.71914 1.1375 5.58247 1.19583 6.17164L1.20166 6.21247L1.23745 6.58825C1.25172 6.73803 1.33246 6.87353 1.45874 6.95532C1.59634 7.04445 1.77478 7.15763 1.89 7.22164C1.97166 7.27414 2.05916 7.3208 2.14666 7.36747C3.14416 7.9158 4.24083 8.2833 5.355 8.46414C5.4075 9.01247 5.64666 9.65414 6.92416 9.65414C8.20166 9.65414 8.4525 9.0183 8.49333 8.45247C9.68333 8.25997 10.8325 7.8458 11.8708 7.23914C11.9058 7.22164 11.9292 7.20414 11.9583 7.18664C12.166 7.06928 12.3806 6.92748 12.5805 6.78556C12.6904 6.70759 12.7601 6.58552 12.775 6.45164L12.8042 6.17747C12.81 6.14247 12.81 6.1133 12.8158 6.07247C12.8625 5.4833 12.8508 4.6783 12.3025 4.07164ZM7.63583 8.06747C7.63583 8.6858 7.63583 8.77914 6.91833 8.77914C6.20083 8.77914 6.20083 8.6683 6.20083 8.0733V7.3383H7.63583V8.06747ZM5.1975 3.24914V3.2258C5.1975 2.23414 5.1975 1.86664 6.55666 1.86664H7.44333C8.8025 1.86664 8.8025 2.23997 8.8025 3.2258V3.25497H5.1975V3.24914Z" fill="#292D32"/>
<path d="M11.838 8.17058C12.1932 8.00568 12.601 8.28659 12.5656 8.67657L12.39 10.6108C12.2675 11.7775 11.7892 12.9675 9.22251 12.9675H4.77751C2.21084 12.9675 1.73251 11.7775 1.61001 10.6167L1.44429 8.79384C1.40925 8.40838 1.80751 8.12779 2.16156 8.28416C2.81223 8.57154 3.72609 8.9543 4.36845 9.138C4.53175 9.1847 4.66363 9.30351 4.74438 9.45294C5.11818 10.1447 5.86591 10.5117 6.92417 10.5117C7.97211 10.5117 8.72824 10.1304 9.1038 9.43564C9.18464 9.2861 9.31676 9.16736 9.48008 9.12021C10.1665 8.92203 11.1498 8.4901 11.838 8.17058Z" fill="#292D32"/>
</svg>
