<svg width="15" height="15" viewBox="0 0 15 15" fill="none" xmlns="http://www.w3.org/2000/svg">
<path d="M13.75 11.4562C13.75 11.6812 13.7 11.9125 13.5937 12.1375C13.4875 12.3625 13.35 12.575 13.1687 12.775C12.8625 13.1125 12.525 13.3562 12.1437 13.5125C11.7687 13.6687 11.3562 13.75 10.9187 13.75C10.2812 13.75 9.59999 13.6 8.88124 13.2937C8.16249 12.9875 7.43749 12.575 6.72499 12.0562C6.36249 11.7875 6.00624 11.5125 5.66249 11.2125L7.69999 9.17496C7.70624 9.17496 7.70624 9.17496 7.71249 9.18121C8.03749 9.45621 8.30624 9.64371 8.51874 9.75621C8.54999 9.76871 8.58749 9.78746 8.63124 9.80621C8.68124 9.82496 8.73124 9.83121 8.78749 9.83121C8.89374 9.83121 8.97499 9.79371 9.04374 9.72496L9.51874 9.25621C9.67499 9.09996 9.82499 8.98121 9.96874 8.90621C10.1125 8.81871 10.2562 8.77496 10.4125 8.77496C10.5312 8.77496 10.6562 8.79996 10.7937 8.85621C10.9312 8.91246 11.075 8.99371 11.2312 9.09996L13.3062 10.5687C13.4687 10.6812 13.5812 10.8125 13.65 10.9687C13.7125 11.125 13.75 11.2812 13.75 11.4562Z" fill="#292D32"/>
<path d="M9.01315 10.5921L7.03947 12.171C7.03322 12.171 5.79967 11.4309 5.79342 11.4247C5.14967 10.7747 4.56842 10.0934 4.04342 9.38091C3.53717 8.68091 3.13092 7.97466 2.83092 7.28091C2.82467 7.26841 2.82467 7.26216 2.81842 7.24966C2.51842 6.53716 2.36842 5.85591 2.36842 5.20591C2.36842 4.78091 2.44342 4.37466 2.59342 3.99966C2.71842 3.68091 2.90592 3.38091 3.16217 3.11216C3.20592 3.06216 3.25592 3.00591 3.31217 2.95591C3.41217 2.85591 3.51217 2.76841 3.61842 2.69966C3.62467 2.69966 3.62467 2.69966 3.62467 2.69966C3.93717 2.47466 4.26842 2.36841 4.61842 2.36841C4.79342 2.36841 4.96842 2.40591 5.12467 2.48091C5.27467 2.54966 5.40592 2.64966 5.51217 2.79341C5.52467 2.80591 5.53092 2.81841 5.54342 2.83091L6.99342 4.87466C7.10592 5.03091 7.18717 5.17466 7.24342 5.31216C7.29967 5.44341 7.33092 5.57466 7.33092 5.69341C7.33092 5.84341 7.28717 5.99341 7.19967 6.13716C7.11842 6.28091 6.99967 6.43091 6.84967 6.58091L6.37467 7.07466C6.30592 7.14341 6.27467 7.22466 6.27467 7.32466C6.27467 7.37466 6.28092 7.41841 6.29342 7.46841C6.31217 7.51841 6.33092 7.55591 6.34342 7.59341C6.45592 7.79966 6.64967 8.06841 6.92467 8.39341C7.20592 8.71841 7.50592 9.04966 7.83092 9.38091C7.83717 9.38716 9.0069 10.5858 9.01315 10.5921Z" fill="#292D32"/>
</svg>
