<svg width="21" height="21" viewBox="0 0 21 21" fill="none" xmlns="http://www.w3.org/2000/svg">
<path d="M6.18311 2.07544L4.56046 2.07544C2.69014 2.07544 1.70801 3.05757 1.70801 4.91935V6.542C1.70801 8.40378 2.69014 9.38592 4.55192 9.38592H6.17457C8.03635 9.38592 9.01849 8.40378 9.01849 6.542V4.91935C9.02703 3.05757 8.04489 2.07544 6.18311 2.07544Z" fill="#1FBE8E"/>
<path d="M15.9446 2.07544L14.3219 2.07544C12.4602 2.07544 11.478 3.05757 11.478 4.91935V6.542C11.478 8.40378 12.4602 9.38592 14.3219 9.38592H15.9446C17.8064 9.38592 18.7885 8.40378 18.7885 6.542V4.91935C18.7885 3.05757 17.8064 2.07544 15.9446 2.07544Z" fill="#1FBE8E"/>
<path d="M15.9446 11.837H14.3219C12.4602 11.837 11.478 12.8192 11.478 14.6809V16.3036C11.478 18.1654 12.4602 19.1475 14.3219 19.1475H15.9446C17.8064 19.1475 18.7885 18.1654 18.7885 16.3036V14.6809C18.7885 12.8192 17.8064 11.837 15.9446 11.837Z" fill="#1FBE8E"/>
<path d="M6.18311 11.837H4.56046C2.69014 11.837 1.70801 12.8192 1.70801 14.6809V16.3036C1.70801 18.1739 2.69014 19.1561 4.55192 19.1561H6.17457C8.03635 19.1561 9.01849 18.1739 9.01849 16.3121V14.6895C9.02703 12.8192 8.04489 11.837 6.18311 11.837Z" fill="#1FBE8E"/>
</svg>
