<svg width="21" height="22" viewBox="0 0 21 22" fill="none" xmlns="http://www.w3.org/2000/svg">
<path d="M13.4936 2.41324C13.1435 2.06309 12.5371 2.30222 12.5371 2.78901V5.76957C12.5371 7.01645 13.5961 8.04982 14.8857 8.04982C15.697 8.05836 16.8243 8.05836 17.7894 8.05836C18.2762 8.05836 18.5324 7.48616 18.1908 7.14455C16.961 5.90621 14.7576 3.6772 13.4936 2.41324Z" fill="#333333"/>
<path d="M17.5075 9.22849H15.0394C13.0153 9.22849 11.367 7.58022 11.367 5.55618V3.08804C11.367 2.61832 10.9827 2.23401 10.513 2.23401L6.89194 2.23401C4.26154 2.23401 2.13501 3.94206 2.13501 6.99094L2.13501 14.5576C2.13501 17.6065 4.26154 19.3146 6.89194 19.3146H13.6046C16.235 19.3146 18.3615 17.6065 18.3615 14.5576V10.0825C18.3615 9.61281 17.9772 9.22849 17.5075 9.22849ZM9.82126 15.6849L6.40515 15.6849C6.055 15.6849 5.76463 15.3946 5.76463 15.0444C5.76463 14.6943 6.055 14.4039 6.40515 14.4039L9.82126 14.4039C10.1714 14.4039 10.4618 14.6943 10.4618 15.0444C10.4618 15.3946 10.1714 15.6849 9.82126 15.6849ZM11.5293 12.2688L6.40515 12.2688C6.055 12.2688 5.76463 11.9785 5.76463 11.6283C5.76463 11.2782 6.055 10.9878 6.40515 10.9878L11.5293 10.9878C11.8795 10.9878 12.1698 11.2782 12.1698 11.6283C12.1698 11.9785 11.8795 12.2688 11.5293 12.2688Z" fill="#333333"/>
</svg>
