r<svg width="32" height="28" viewBox="0 0 32 28" fill="none" xmlns="http://www.w3.org/2000/svg">
<path d="M25.8666 4.64413C26.061 4.90306 25.7843 5.23141 25.4667 5.16825C24.84 5.00492 24.1467 4.92325 23.44 4.92325H18.9364C18.7906 4.92325 18.6521 4.85962 18.5571 4.74901L16.9734 2.90492C16.7942 2.68286 16.9412 2.33325 17.2265 2.33325H20.96C23.0108 2.33325 24.8208 3.25149 25.8666 4.64413Z" fill="#292D32"/>
<path d="M26.8534 7.62992C26.2801 7.26825 25.6267 6.99992 24.9201 6.84825C24.4401 6.73159 23.9467 6.67325 23.4401 6.67325H18.4801C17.7067 6.67325 17.6534 6.61492 17.2401 6.13659L15.3734 3.96659C14.5067 2.95159 13.8267 2.33325 11.6534 2.33325H8.56008C5.30675 2.33325 2.66675 4.64325 2.66675 7.48992V20.5099C2.66675 23.3566 5.30675 25.6666 8.56008 25.6666H23.4401C26.6934 25.6666 29.3334 23.3566 29.3334 20.5099V11.8299C29.3334 10.0916 28.3601 8.56325 26.8534 7.62992ZM19.1867 19.0633H12.8001C12.2801 19.0633 11.8801 18.7016 11.8801 18.2466C11.8801 17.8033 12.2801 17.4299 12.8001 17.4299H19.1867C19.7067 17.4299 20.1201 17.8033 20.1201 18.2466C20.1201 18.7016 19.7067 19.0633 19.1867 19.0633Z" fill="#292D32"/>
</svg>
