<svg width="21" height="22" viewBox="0 0 21 22" fill="none" xmlns="http://www.w3.org/2000/svg">
<path d="M14.9969 2.30725L5.47451 2.30725C3.39923 2.30725 1.70825 3.99823 1.70825 6.07351L1.70825 11.6247V11.7955C1.70825 13.8793 3.39923 15.5618 5.47451 15.5618H8.75398C9.22369 15.5618 9.60801 15.9461 9.60801 16.4158V17.2442C9.60801 17.7139 9.22369 18.0982 8.75398 18.0982H6.68723C6.33708 18.0982 6.04671 18.3886 6.04671 18.7387C6.04671 19.0889 6.32854 19.3878 6.68723 19.3878H13.8184C14.1685 19.3878 14.4589 19.0974 14.4589 18.7473C14.4589 18.3971 14.1685 18.1068 13.8184 18.1068H11.7516C11.2819 18.1068 10.8976 17.7224 10.8976 17.2527V16.4243C10.8976 15.9546 11.2819 15.5703 11.7516 15.5703H15.0055C17.0893 15.5703 18.7717 13.8793 18.7717 11.804V11.6332V6.08205C18.7632 3.99823 17.0722 2.30725 14.9969 2.30725Z" fill="#333333"/>
</svg>
