<svg width="13" height="13" viewBox="0 0 13 13" fill="none" xmlns="http://www.w3.org/2000/svg">
<path d="M11.1692 4.5771C10.6004 2.0746 8.41751 0.947937 6.50001 0.947937C6.50001 0.947937 6.50001 0.947937 6.49459 0.947937C4.58251 0.947937 2.39417 2.06919 1.82542 4.57169C1.19167 7.36669 2.90334 9.73377 4.45251 11.2234C5.02667 11.7759 5.76334 12.0521 6.50001 12.0521C7.23667 12.0521 7.97334 11.7759 8.54209 11.2234C10.0913 9.73377 11.8029 7.3721 11.1692 4.5771ZM6.50001 7.29085C5.55751 7.29085 4.79376 6.5271 4.79376 5.5846C4.79376 4.6421 5.55751 3.87835 6.50001 3.87835C7.44251 3.87835 8.20626 4.6421 8.20626 5.5846C8.20626 6.5271 7.44251 7.29085 6.50001 7.29085Z" fill="#292D32"/>
</svg>
