<svg width="22" height="22" viewBox="0 0 22 22" fill="none" xmlns="http://www.w3.org/2000/svg">
<path d="M19.2408 8.90081C18.9292 8.77248 18.5167 8.70831 18.0033 8.70831H13.1633C11.5683 8.70831 11 9.27665 11 10.89V17.985C11 18.5166 11.0642 18.9291 11.2017 19.25C11.4858 19.91 12.0908 20.1666 13.1633 20.1666H18.0033C19.5983 20.1666 20.1667 19.5891 20.1667 17.985V10.89C20.1667 9.79915 19.91 9.18498 19.2408 8.90081ZM16.5 18.1041H14.6667C14.6483 18.1041 14.6208 18.1041 14.6025 18.095C14.465 18.0858 14.3458 18.04 14.245 17.9483C14.08 17.8291 13.9792 17.6366 13.9792 17.4166C13.9792 17.0408 14.2908 16.7291 14.6667 16.7291H16.5C16.8758 16.7291 17.1875 17.0408 17.1875 17.4166C17.1875 17.7925 16.8758 18.1041 16.5 18.1041Z" fill="#292D32"/>
<path d="M19.2409 5.67415V6.41665C19.2409 6.92081 18.8284 7.33331 18.3242 7.33331H13.1634C10.8167 7.33331 9.62503 8.53415 9.62503 10.89V19.25C9.62503 19.7541 9.21253 20.1666 8.70836 20.1666H6.92086C6.5542 20.1666 6.26086 19.8733 6.26086 19.5158C6.26086 19.1491 6.5542 18.865 6.92086 18.865H8.70836V15.3541H5.50003C3.46503 15.2533 1.84253 13.5758 1.84253 11.5133V5.67415C1.84253 3.55665 3.56586 1.83331 5.69253 1.83331H15.4C17.5175 1.83331 19.2409 3.55665 19.2409 5.67415Z" fill="#292D32"/>
</svg>
