<svg width="22" height="22" viewBox="0 0 22 22" fill="none" xmlns="http://www.w3.org/2000/svg">
<path d="M17.1597 3.92466C17.1597 3.91586 17.1597 3.90706 17.1421 3.89826C16.9485 3.65186 16.6933 3.51986 16.3941 3.51986C15.9277 3.51986 15.3645 3.82786 14.7573 4.47905C14.0357 5.25344 12.927 5.19184 12.2934 4.34705L11.4046 3.16787C11.0526 2.69267 10.5862 2.45508 10.1198 2.45508C9.6534 2.45508 9.18701 2.69267 8.83501 3.16787L7.93742 4.35585C7.31263 5.19184 6.21265 5.25344 5.49106 4.48785L5.48226 4.47905C4.48787 3.41427 3.59908 3.25587 3.09749 3.89826C3.07989 3.90706 3.07989 3.91586 3.07989 3.92466C2.76309 4.60225 2.63989 5.55264 2.63989 6.89022V15.6197C2.63989 16.9573 2.76309 17.9077 3.07989 18.5853C3.07989 18.5941 3.08869 18.6117 3.09749 18.6205C3.60788 19.2541 4.48787 19.0957 5.48226 18.0309L5.49106 18.0221C6.21265 17.2565 7.31263 17.3181 7.93742 18.1541L8.83501 19.3421C9.18701 19.8173 9.6534 20.0549 10.1198 20.0549C10.5862 20.0549 11.0526 19.8173 11.4046 19.3421L12.2934 18.1629C12.927 17.3181 14.0357 17.2565 14.7573 18.0309C15.3645 18.6821 15.9277 18.9901 16.3941 18.9901C16.6933 18.9901 16.9485 18.8669 17.1421 18.6205C17.1509 18.6117 17.1597 18.5941 17.1597 18.5853C17.4765 17.9077 17.5997 16.9573 17.5997 15.6197V6.89022C17.5997 5.55264 17.4765 4.60225 17.1597 3.92466ZM12.3198 13.4549H7.03984C6.67904 13.4549 6.37984 13.1557 6.37984 12.7949C6.37984 12.4341 6.67904 12.135 7.03984 12.135H12.3198C12.6806 12.135 12.9798 12.4341 12.9798 12.7949C12.9798 13.1557 12.6806 13.4549 12.3198 13.4549ZM14.0797 10.375H7.03984C6.67904 10.375 6.37984 10.0758 6.37984 9.71498C6.37984 9.35419 6.67904 9.05499 7.03984 9.05499H14.0797C14.4405 9.05499 14.7397 9.35419 14.7397 9.71498C14.7397 10.0758 14.4405 10.375 14.0797 10.375Z" fill="#292D32"/>
</svg>
