<svg width="11" height="11" viewBox="0 0 11 11" fill="none" xmlns="http://www.w3.org/2000/svg">
<path d="M8.03459 3.56127C8.0025 3.55669 7.97042 3.55669 7.93834 3.56127C7.22792 3.53835 6.66417 2.95627 6.66417 2.24127C6.66417 1.51252 7.25542 0.916687 7.98875 0.916687C8.7175 0.916687 9.31334 1.50794 9.31334 2.24127C9.30875 2.95627 8.745 3.53835 8.03459 3.56127Z" fill="#292D32"/>
<path d="M9.52875 6.7375C9.01542 7.08125 8.29584 7.20958 7.63125 7.1225C7.80542 6.74667 7.89709 6.32959 7.90167 5.88959C7.90167 5.43125 7.80084 4.99584 7.60834 4.61542C8.28667 4.52375 9.00625 4.65208 9.52417 4.99583C10.2483 5.4725 10.2483 6.25625 9.52875 6.7375Z" fill="#292D32"/>
<path d="M2.95167 3.56127C2.98376 3.55669 3.01584 3.55669 3.04792 3.56127C3.75834 3.53835 4.32209 2.95627 4.32209 2.24127C4.32209 1.50794 3.73084 0.916687 2.99751 0.916687C2.26876 0.916687 1.67751 1.50794 1.67751 2.24127C1.67751 2.95627 2.24126 3.53835 2.95167 3.56127Z" fill="#292D32"/>
<path d="M3.00208 5.88961C3.00208 6.33419 3.09833 6.75586 3.27249 7.13628C2.62624 7.20503 1.95249 7.06753 1.45749 6.74211C0.733326 6.26086 0.733326 5.47711 1.45749 4.99586C1.94791 4.66586 2.63999 4.53294 3.29083 4.60628C3.10291 4.99128 3.00208 5.42669 3.00208 5.88961Z" fill="#292D32"/>
<path d="M5.555 7.27375C5.51833 7.26917 5.47708 7.26917 5.43583 7.27375C4.5925 7.24625 3.91875 6.55417 3.91875 5.70167C3.92333 4.83083 4.62458 4.125 5.5 4.125C6.37083 4.125 7.07666 4.83083 7.07666 5.70167C7.07208 6.55417 6.40291 7.24625 5.555 7.27375Z" fill="#292D32"/>
<path d="M4.06542 8.22252C3.37334 8.68544 3.37334 9.44627 4.06542 9.90461C4.85375 10.4317 6.14625 10.4317 6.93459 9.90461C7.62667 9.44169 7.62667 8.68086 6.93459 8.22252C6.15084 7.69544 4.85834 7.69544 4.06542 8.22252Z" fill="#292D32"/>
</svg>
