<svg width="21" height="21" viewBox="0 0 21 21" fill="none" xmlns="http://www.w3.org/2000/svg">
<path d="M13.8269 2.00232L6.67015 2.00232C3.56149 2.00232 1.70825 3.85556 1.70825 6.96422L1.70825 14.1124C1.70825 17.2296 3.56149 19.0829 6.67015 19.0829H13.8184C16.927 19.0829 18.7803 17.2296 18.7803 14.121V6.96422C18.7888 3.85556 16.9356 2.00232 13.8269 2.00232ZM8.46361 14.121C8.46361 14.6675 8.01952 15.1116 7.4644 15.1116C6.91782 15.1116 6.47373 14.6675 6.47373 14.121L6.47373 11.3368C6.47373 10.7903 6.91782 10.3462 7.4644 10.3462C8.01952 10.3462 8.46361 10.7903 8.46361 11.3368L8.46361 14.121ZM14.0233 14.121C14.0233 14.6675 13.5792 15.1116 13.0327 15.1116C12.4775 15.1116 12.0334 14.6675 12.0334 14.121L12.0334 6.96422C12.0334 6.41764 12.4775 5.97355 13.0327 5.97355C13.5792 5.97355 14.0233 6.41764 14.0233 6.96422L14.0233 14.121Z" fill="#333333"/>
</svg>
