<svg width="21" height="21" viewBox="0 0 21 21" fill="none" xmlns="http://www.w3.org/2000/svg">
<path d="M10.4099 13.4426C8.73577 13.4426 7.37708 12.0839 7.37708 10.4098C7.37708 8.73565 8.73577 7.37695 10.4099 7.37695C12.084 7.37695 13.4427 8.73565 13.4427 10.4098C13.4427 12.0839 12.084 13.4426 10.4099 13.4426ZM10.4099 8.59008C9.40703 8.59008 8.5902 9.40691 8.5902 10.4098C8.5902 11.4126 9.40703 12.2294 10.4099 12.2294C11.4127 12.2294 12.2296 11.4126 12.2296 10.4098C12.2296 9.40691 11.4127 8.59008 10.4099 8.59008Z" fill="#101010"/>
<path d="M13.0061 18.6509C12.8362 18.6509 12.6664 18.6267 12.4966 18.5862C11.9951 18.4487 11.5746 18.1333 11.3077 17.6885L11.2107 17.5268C10.7335 16.7018 10.0784 16.7018 9.60124 17.5268L9.51228 17.6804C9.24539 18.1333 8.82484 18.4568 8.32342 18.5862C7.81391 18.7237 7.28822 18.6509 6.84341 18.384L5.45236 17.5834C4.95902 17.3003 4.60318 16.8393 4.44951 16.2813C4.30394 15.7232 4.37673 15.149 4.65979 14.6557C4.89432 14.2432 4.95902 13.8712 4.82154 13.6367C4.68405 13.4021 4.33629 13.2647 3.85913 13.2647C2.67835 13.2647 1.71594 12.3022 1.71594 11.1215L1.71594 9.69807C1.71594 8.5173 2.67835 7.55489 3.85913 7.55489C4.33629 7.55489 4.68405 7.4174 4.82154 7.18286C4.95902 6.94833 4.90241 6.5763 4.65979 6.16384C4.37673 5.6705 4.30394 5.0882 4.44951 4.53825C4.59509 3.98022 4.95094 3.51923 5.45236 3.23617L6.8515 2.43551C7.76538 1.89365 8.97042 2.20906 9.52037 3.13912L9.61742 3.30087C10.0946 4.12579 10.7497 4.12579 11.2268 3.30087L11.3158 3.14721C11.8657 2.20906 13.0708 1.89365 13.9927 2.44359L15.3838 3.24426C15.8771 3.52732 16.233 3.9883 16.3866 4.54634C16.5322 5.10438 16.4594 5.67859 16.1764 6.17193C15.9418 6.58439 15.8771 6.95641 16.0146 7.19095C16.1521 7.42549 16.4999 7.56297 16.977 7.56297C18.1578 7.56297 19.1202 8.52538 19.1202 9.70616V11.1296C19.1202 12.3103 18.1578 13.2727 16.977 13.2727C16.4999 13.2727 16.1521 13.4102 16.0146 13.6448C15.8771 13.8793 15.9337 14.2513 16.1764 14.6638C16.4594 15.1571 16.5403 15.7394 16.3866 16.2894C16.2411 16.8474 15.8852 17.3084 15.3838 17.5915L13.9847 18.3921C13.6773 18.562 13.3457 18.6509 13.0061 18.6509ZM10.41 15.6585C11.1298 15.6585 11.801 16.1114 12.262 16.9121L12.351 17.0658C12.448 17.2356 12.6098 17.3569 12.8039 17.4054C12.998 17.454 13.1921 17.4297 13.3538 17.3327L14.753 16.5239C14.9632 16.4026 15.125 16.2004 15.1897 15.9578C15.2544 15.7152 15.222 15.4644 15.1007 15.2542C14.6397 14.4616 14.5831 13.6448 14.939 13.022C15.2948 12.3993 16.0308 12.0434 16.9528 12.0434C17.4704 12.0434 17.8828 11.631 17.8828 11.1134V9.68998C17.8828 9.18047 17.4704 8.75992 16.9528 8.75992C16.0308 8.75992 15.2948 8.40407 14.939 7.78134C14.5831 7.1586 14.6397 6.34176 15.1007 5.54919C15.222 5.33891 15.2544 5.0882 15.1897 4.84558C15.125 4.60295 14.9713 4.40885 14.7611 4.27945L13.3619 3.47879C13.0142 3.26852 12.5532 3.38983 12.3429 3.74568L12.2539 3.89934C11.793 4.7 11.1217 5.1529 10.4019 5.1529C9.68212 5.1529 9.01086 4.7 8.54987 3.89934L8.46091 3.73759C8.25872 3.39792 7.80582 3.27661 7.45806 3.47879L6.05892 4.28754C5.84865 4.40885 5.6869 4.61104 5.6222 4.85367C5.5575 5.09629 5.58985 5.347 5.71116 5.55728C6.17215 6.34985 6.22876 7.16669 5.87291 7.78942C5.51706 8.41216 4.7811 8.76801 3.85913 8.76801C3.34153 8.76801 2.92907 9.18047 2.92907 9.69807L2.92907 11.1215C2.92907 11.631 3.34153 12.0515 3.85913 12.0515C4.7811 12.0515 5.51706 12.4074 5.87291 13.0301C6.22876 13.6529 6.17215 14.4697 5.71116 15.2623C5.58985 15.4725 5.5575 15.7232 5.6222 15.9659C5.6869 16.2085 5.84056 16.4026 6.05084 16.532L7.44997 17.3327C7.61981 17.4378 7.82199 17.4621 8.00801 17.4135C8.20211 17.365 8.36386 17.2356 8.46899 17.0658L8.55796 16.9121C9.01894 16.1195 9.6902 15.6585 10.41 15.6585Z" fill="#101010"/>
</svg>
