<svg width="16" height="16" viewBox="0 0 16 16" fill="none" xmlns="http://www.w3.org/2000/svg">
<path d="M13 5.33333C13.9205 5.33333 14.6667 4.58714 14.6667 3.66667C14.6667 2.74619 13.9205 2 13 2C12.0795 2 11.3333 2.74619 11.3333 3.66667C11.3333 4.58714 12.0795 5.33333 13 5.33333Z" fill="#292D32"/>
<path d="M13 5.33333C13.9205 5.33333 14.6667 4.58714 14.6667 3.66667C14.6667 2.74619 13.9205 2 13 2C12.0795 2 11.3333 2.74619 11.3333 3.66667C11.3333 4.58714 12.0795 5.33333 13 5.33333Z" fill="#292D32"/>
<path d="M13.8133 6.20665C13.3467 6.35331 12.8333 6.37998 12.3 6.24665C11.4067 6.01331 10.68 5.29998 10.4333 4.40665C10.3133 3.97331 10.3067 3.54665 10.38 3.15998C10.4667 2.73331 10.1667 2.33331 9.74 2.33331H4.66667C2.66667 2.33331 1.33333 3.33331 1.33333 5.66665V10.3333C1.33333 12.6666 2.66667 13.6666 4.66667 13.6666H11.3333C13.3333 13.6666 14.6667 12.6666 14.6667 10.3333V6.83998C14.6667 6.39998 14.24 6.06665 13.8133 6.20665ZM10.3467 7.43331L9.56 8.05998C9.12 8.41331 8.56 8.58665 8 8.58665C7.44 8.58665 6.87333 8.41331 6.44 8.05998L4.35333 6.39331C4.14 6.21998 4.10667 5.89998 4.27333 5.68665C4.44667 5.47331 4.76 5.43331 4.97333 5.60665L7.06 7.27331C7.56667 7.67998 8.42667 7.67998 8.93333 7.27331L9.72 6.64665C9.93333 6.47331 10.2533 6.50665 10.42 6.72665C10.5933 6.93998 10.56 7.25998 10.3467 7.43331Z" fill="#292D32"/>
</svg>
