<svg width="53" height="38" viewBox="0 0 53 38" fill="none" xmlns="http://www.w3.org/2000/svg">
<path d="M0.000699181 8.69038C0.00139836 8.62516 0.00279672 8.55995 0.0034959 8.49543C0.0034959 8.2535 0.00209754 8.01157 0.00209754 7.76964C0.00209754 7.70442 0.00209754 7.63921 0.00209754 7.57469C0.00209754 7.50807 0.0034959 7.44145 0.00419508 7.37554C0.00489426 7.2444 0.00629263 7.11257 0.00699181 6.98143C0.00559345 6.58593 0.00419508 6.19043 0.00209754 5.79562C0.00489426 4.35876 0.00209754 2.9219 0.0118861 1.48574C0.0174795 0.633025 0.761408 -0.049992 1.59973 0.0103155C2.02762 0.0411704 2.34645 0.290815 2.66737 0.539759C3.69377 1.33638 4.72506 2.12598 5.74936 2.92471C7.29805 4.13366 8.82995 5.36576 10.394 6.55508C11.4435 7.3531 12.4531 8.20371 13.5145 8.9842C14.1801 9.47367 14.8184 9.99961 15.4862 10.4772C16.5335 11.2261 17.5201 12.0487 18.5472 12.82C19.7365 13.7127 21.3782 13.4259 22.0836 11.8712C22.1913 11.6342 22.1906 11.3362 22.1934 11.0655C22.2053 9.66161 22.178 8.25701 22.2088 6.85381C22.2479 5.09928 23.0261 3.76761 24.607 2.96819C25.6201 2.45557 26.6786 2.3616 27.775 2.72766C29.346 3.25289 30.3053 4.31809 30.6975 5.92535C30.764 6.19674 30.7933 6.46181 30.7933 6.736C30.7933 8.0831 30.7821 9.4302 30.7975 10.7773C30.8059 11.4757 30.9192 12.144 31.4491 12.6798C32.112 13.3495 33.3894 13.5493 34.1871 12.9932C35.066 12.3804 35.898 11.7058 36.7419 11.0487C37.8515 10.1847 38.9632 9.32431 40.0994 8.49543C40.8734 7.93093 41.6096 7.31523 42.3683 6.72898C43.1576 6.1189 43.9589 5.52424 44.7462 4.91205C45.9956 3.94012 47.236 2.95626 48.4847 1.98223C49.2342 1.39809 49.9837 0.813947 50.7479 0.249441C51.1954 -0.0815482 51.7023 -0.0598095 52.1785 0.170902C52.684 0.415638 52.9832 0.830777 52.9839 1.41983C52.986 3.15261 52.986 4.8854 52.9881 6.61819C52.9881 6.76054 52.9958 6.90289 53 7.04525C52.8301 7.18059 52.9874 7.32996 52.9867 7.47091C52.9818 8.92951 53.0049 10.3881 52.9727 11.8453C52.958 12.5059 52.5413 12.9266 51.9261 13.13C51.0765 13.4112 50.2208 13.6742 49.3691 13.9505C48.1959 14.3312 47.0248 14.7183 45.853 15.1019C44.6105 15.5086 43.3625 15.8992 42.127 16.327C41.5215 16.5367 40.886 16.6636 40.3162 16.9742C39.552 17.1601 38.7975 17.3768 38.076 17.6944C37.9858 17.7042 37.8893 17.6923 37.818 17.7695C37.7753 17.7744 37.7327 17.78 37.69 17.7849C37.4355 17.8319 37.1922 17.9097 36.9636 18.0324C35.9274 18.3129 34.9325 18.7302 33.8823 18.9644H33.4936C33.6145 19.1123 33.7509 19.0808 33.8844 19.0703C34.2731 19.1369 34.6465 19.2596 35.0255 19.3634C35.5603 19.51 36.0595 19.7799 36.6231 19.8276C36.7559 19.9826 36.9573 19.9721 37.1272 20.0387C38.0725 20.409 39.0457 20.6993 40.005 21.0247C40.8853 21.3234 41.7795 21.6046 42.6871 21.8339C43.2611 21.9784 43.8086 22.2231 44.3756 22.3998C45.1762 22.6494 45.9823 22.8788 46.7787 23.1452C48.4938 23.7196 50.2166 24.2714 51.9386 24.8247C52.5274 25.0141 52.9853 25.6031 52.986 26.2321C52.9888 29.643 52.9888 33.0539 52.9881 36.4648C52.9881 37.0419 52.7902 37.5307 52.2568 37.7985C51.6744 38.091 51.1024 38.0538 50.5703 37.6372C48.9958 36.4066 47.4212 35.1773 45.8397 33.9564C44.7685 33.1289 43.6904 32.3106 42.606 31.5006C42.1193 31.1367 41.6236 30.7797 41.1587 30.394C40.5322 29.8751 39.8477 29.4326 39.2534 28.8709C38.8507 28.4902 38.3815 28.1802 37.9424 27.8373C36.9992 27.1003 36.0568 26.3626 35.1129 25.6263C34.829 25.4047 34.5521 25.1711 34.2543 24.9706C33.367 24.3731 32.1896 24.533 31.4443 25.296C30.9751 25.7763 30.7863 26.3303 30.7905 26.9853C30.7996 28.3562 30.7793 29.7272 30.8017 31.0981C30.8108 31.6766 30.6773 32.2264 30.5269 32.7657C30.4144 33.1682 30.1158 33.5034 29.8648 33.8449C29.3027 34.6114 28.5448 35.1668 27.6484 35.3785C26.55 35.6387 25.453 35.5819 24.4042 34.9662C23.7638 34.5903 23.296 34.0847 22.8751 33.5237C22.6269 33.1934 22.5115 32.7622 22.336 32.3765C22.1018 31.0252 22.2388 29.6612 22.1976 28.3036C22.1976 28.216 22.1962 28.1276 22.1962 28.04C22.1962 27.9747 22.1962 27.9088 22.1955 27.8436C22.1948 27.7335 22.1934 27.6234 22.1927 27.5133C22.1941 27.4039 22.1962 27.2945 22.1976 27.1851C22.1948 27.075 22.192 26.9649 22.1892 26.8541C22.2074 26.5196 22.1549 26.2041 21.9452 25.9299C21.7228 25.2574 21.1999 24.9026 20.5755 24.695C19.8721 24.4615 19.2156 24.6459 18.6367 25.0709C17.8829 25.6234 17.1509 26.2062 16.4105 26.7784C16.3252 26.8443 16.2336 26.9102 16.2175 27.0316C16.1315 27.0813 16.0462 27.1304 15.9602 27.1802C15.5064 27.5168 15.0513 27.8527 14.5982 28.1907C14.1738 28.5077 13.7375 28.8113 13.332 29.1507C12.9978 29.4312 12.6545 29.6984 12.3098 29.9649C11.4736 30.6114 10.6429 31.2643 9.8102 31.9151C8.55517 32.8961 7.30294 33.8807 6.04442 34.8575C5.28651 35.4451 4.51321 36.0125 3.7588 36.6043C3.32111 36.9472 2.88971 37.2971 2.44713 37.6344C1.91855 38.0377 1.35991 38.1092 0.794269 37.821C0.249608 37.5433 0.00489427 37.058 0.00699181 36.422C0.0188779 33.0679 0.0146828 29.7138 0.0111869 26.3598C0.0111869 25.8759 0.180389 25.479 0.523686 25.1424C0.681002 24.9888 0.878171 24.9348 1.07045 24.864C1.62979 24.6585 2.2157 24.5344 2.76526 24.2981C2.84287 24.2644 2.94355 24.277 2.96872 24.1655C3.11066 24.1529 3.2456 24.12 3.36306 24.0351C3.45255 24.0239 3.54974 24.0428 3.62385 23.9699C3.70915 23.9594 3.79445 23.9489 3.87975 23.9376C4.27899 23.8016 4.68871 23.695 5.06277 23.4931C5.10612 23.4902 5.14947 23.4867 5.19282 23.4839C5.40117 23.4517 5.59764 23.383 5.78642 23.2911C5.89409 23.2939 5.96401 23.2154 6.04861 23.1684C6.35276 23.1452 6.63313 23.0436 6.90231 22.9068C7.07711 22.8409 7.2526 22.7757 7.4274 22.7098C7.5127 22.6978 7.60219 22.6992 7.6826 22.6726C8.29858 22.4685 8.91246 22.2582 9.52704 22.0506C9.63891 22.0597 9.7319 22.0288 9.79622 21.9307C10.0088 21.9496 10.1906 21.8479 10.3814 21.7827C10.5926 21.7967 10.7898 21.7287 10.9841 21.6649C11.7889 21.4026 12.5894 21.1263 13.3956 20.8683C14.0647 20.6537 14.7324 20.4363 15.3799 20.16C15.5316 20.1179 15.7162 20.1909 15.8329 20.0282C16.1091 20.0064 16.3545 19.8774 16.616 19.8052C16.6811 19.8017 16.7524 19.8143 16.8097 19.7912C17.5152 19.5029 18.2234 19.2309 18.9897 19.1446C19.1436 19.1271 19.2918 19.0612 19.5127 18.998C18.8737 18.8823 18.322 18.7708 17.7858 18.5752C17.4711 18.4609 17.1558 18.327 16.8139 18.301C16.0182 18.1138 15.2904 17.7337 14.5101 17.4988C13.4145 17.1685 12.3301 16.7989 11.2421 16.4434C10.6003 16.2337 9.95983 16.0198 9.31938 15.8067C8.41044 15.5044 7.50291 15.1959 6.57649 14.9504C6.0626 14.7036 5.51933 14.5311 4.97537 14.3803C4.12307 14.1447 3.30083 13.8214 2.45692 13.5627C2.01923 13.4287 1.58994 13.266 1.15015 13.1398C0.404127 12.9315 -0.00978853 12.3334 0.00839017 11.5858C0.0216746 11.0382 0.00629263 10.4898 0.00419508 9.94141C0.00419508 9.87619 0.00489426 9.81098 0.00559345 9.74506C0.00559345 9.67914 0.00629263 9.61252 0.00699181 9.54661C0.00489427 9.48139 0.00209754 9.41617 0 9.35096C0 9.13076 0 8.90987 0.000699181 8.68968V8.69038ZM23.4351 20.153V20.1544C23.4449 20.2855 23.5428 20.3479 23.6337 20.4174C23.6778 20.4903 23.7414 20.5331 23.8246 20.5478C23.9875 20.8017 24.1868 21.0233 24.421 21.2119C24.4427 21.2526 24.4643 21.2932 24.486 21.3339C25.2894 22.4847 25.546 23.7714 25.4872 25.1564C25.4509 26.0084 25.49 26.8633 25.4956 27.7167C25.4949 28.0659 25.4942 28.4158 25.4928 28.765C25.4928 29.2272 25.4928 29.6893 25.4914 30.1507C25.4928 30.2811 25.4935 30.4123 25.4949 30.5427L25.4963 30.8106C25.4963 30.8534 25.497 30.8954 25.4977 30.9382C25.4236 31.2987 25.5474 31.6065 25.7613 31.8828C26.0158 32.211 26.3906 32.2481 26.743 32.1703C27.0359 32.1058 27.3519 31.9859 27.4338 31.6107C27.5533 31.0602 27.5142 30.5048 27.4981 29.9495C27.4981 29.7538 27.4995 29.5575 27.5002 29.3618C27.5002 29.1627 27.5002 28.9635 27.5002 28.765C27.5002 28.5687 27.5002 28.3723 27.4995 28.176C27.4995 27.758 27.4995 27.3401 27.4995 26.9222C27.5009 26.3527 27.5023 25.784 27.5037 25.2146C27.5016 25.0379 27.5002 24.8605 27.4981 24.6838C27.5023 24.4874 27.5065 24.2911 27.51 24.0954C27.4498 23.7721 27.6722 23.4909 27.6463 23.1733C27.7092 23.073 27.7197 22.9608 27.7204 22.8465C27.7617 22.6873 27.8693 22.5583 27.9267 22.4103C28.1742 21.7694 28.5881 21.247 29.0419 20.7456C29.5243 20.2133 30.1256 19.8494 30.7332 19.491C30.7758 19.4861 30.8178 19.4812 30.8604 19.4763C31.3191 19.2323 31.8302 19.1565 32.3301 19.0114C31.7834 18.8929 31.2744 18.6783 30.7402 18.5499C30.6451 18.4784 30.5577 18.3915 30.4535 18.3389C29.6921 17.9525 29.0733 17.4139 28.5776 16.7113C28.0441 15.9553 27.6911 15.1391 27.5778 14.2197C27.6358 14.1713 27.6316 14.13 27.5638 14.0963C27.5589 14.0269 27.554 13.9575 27.5491 13.888C27.5834 13.6033 27.6239 13.3179 27.5058 13.0409C27.5037 12.9715 27.5023 12.9021 27.5002 12.8327C27.5673 12.7941 27.5659 12.7534 27.5037 12.7113C27.5051 12.3137 27.5065 11.9161 27.5079 11.5185C27.5855 11.4568 27.5848 11.3923 27.517 11.3243L27.5121 11.0599C27.5813 10.994 27.5855 10.9302 27.5079 10.8678C27.5065 10.3846 27.5051 9.90074 27.5037 9.41757C27.5058 9.37269 27.5072 9.32852 27.5093 9.28364C27.5114 8.45266 27.5079 7.62097 27.5205 6.78999C27.5232 6.58944 27.4547 6.42184 27.3492 6.27458C27.0961 5.92115 26.7493 5.7297 26.3074 5.80544C25.9997 5.85803 25.7333 5.99758 25.6215 6.32577C25.5704 6.35382 25.5558 6.4008 25.5572 6.4555C25.4397 6.99967 25.4816 7.54945 25.4942 8.09853C25.4942 8.1434 25.4956 8.18828 25.4963 8.23316C25.4963 8.34186 25.497 8.45125 25.4977 8.55995C25.4928 8.6483 25.4879 8.73666 25.4837 8.82432C25.4872 9.72332 25.49 10.6223 25.4935 11.5213C25.4935 11.6104 25.4935 11.6987 25.4935 11.7878C25.4914 12.4245 25.4893 13.0613 25.4879 13.698C25.4194 13.7506 25.4173 13.8193 25.4411 13.8936C25.4348 14.0697 25.4285 14.2457 25.4222 14.4217C25.3621 14.4603 25.3551 14.5037 25.4089 14.5535C25.253 15.0297 25.0978 15.5065 24.9419 15.9827C24.658 16.3803 24.3734 16.7779 24.0896 17.1755C23.9392 17.3291 23.7889 17.4819 23.6393 17.6355C23.1771 17.9434 22.715 18.2512 22.2528 18.5591C22.1011 18.5289 22.0137 18.6881 21.8725 18.6902C21.8207 18.6369 21.748 18.6173 21.6935 18.653C21.3705 18.8634 20.9978 18.9153 20.6286 19.0058C21.023 19.1285 21.4285 19.2021 21.8109 19.3375C22.199 19.4742 22.5737 19.6558 22.9205 19.8844C23.0499 19.9567 23.1534 20.0745 23.3086 20.099C23.3519 20.1172 23.3953 20.1362 23.4386 20.1544L23.4351 20.153Z" fill="#060606"/>
</svg>
